# xmcd
#
# Track frame offsets: 
#        150
#        25822
#        47167
#        69367
#        92107
#        114332
#        142360
#        166310
#        185922
#        214837
#
# Disc length: 3127 seconds
#
# Revision: 0
# Processed by: cddbd v1.5.2PL0 Copyright (c) Steve Scherf et al.
# Submitted via: ExactAudioCopy v1.0b3
#
DISCID=940c350a
DTITLE=Che Linh - Em Ben Doi Ngan Ngo
DYEAR=1996
DGENRE=
TTITLE0=Em ben doi ngan ngo
TTITLE1=Thuong tinh nhan
TTITLE2=Dem toc roi
TTITLE3=Vong tay cho doi
TTITLE4=Giot le tinh
TTITLE5=Doan buon cho toi
TTITLE6=Mong sau
TTITLE7=Suong lanh chieu dong
TTITLE8=Nguoi phu keo mo cau
TTITLE9=Da Lat hoang hon
EXTD=
EXTT0=
EXTT1=
EXTT2=
EXTT3=
EXTT4=
EXTT5=
EXTT6=
EXTT7=
EXTT8=
EXTT9=
PLAYORDER=
